<?xml version="1.0" encoding="utf-8"?>
<!-- Generator: Adobe Illustrator 27.5.0, SVG Export Plug-In . SVG Version: 6.00 Build 0)  -->
<svg version="1.1" id="Layer_1" xmlns="http://www.w3.org/2000/svg" xmlns:xlink="http://www.w3.org/1999/xlink" x="0px" y="0px"
	 viewBox="0 0 512 512" style="enable-background:new 0 0 512 512;" xml:space="preserve">
<style type="text/css">
	.st0{fill:#FF00CF;}
</style>
<path class="st0" d="M0,256C0,114.6,114.6,0,256,0s256,114.6,256,256S397.4,512,256,512S0,397.4,0,256z M188.3,147.1
	c-7.6,4.2-12.3,12.3-12.3,20.9v176c0,8.7,4.7,16.7,12.3,20.9s16.8,4.1,24.3-0.5l144-88c7.1-4.4,11.5-12.1,11.5-20.5
	s-4.4-16.1-11.5-20.5l-144-88c-7.4-4.5-16.7-4.7-24.3-0.5V147.1z"/>
</svg>
