<?xml version="1.0" encoding="utf-8"?>
<!-- Generator: Adobe Illustrator 27.5.0, SVG Export Plug-In . SVG Version: 6.00 Build 0)  -->
<svg version="1.1" id="Layer_1" xmlns="http://www.w3.org/2000/svg" xmlns:xlink="http://www.w3.org/1999/xlink" x="0px" y="0px"
	 viewBox="0 0 640 512" style="enable-background:new 0 0 640 512;" xml:space="preserve">
<style type="text/css">
	.st0{fill:#FF00CF;}
</style>
<path class="st0" d="M344,24v144c0,13.3-10.7,24-24,24s-24-10.7-24-24V24c0-13.3,10.7-24,24-24S344,10.7,344,24z M192,320
	c0-17.7,14.3-32,32-32h192c17.7,0,32,14.3,32,32v32H192V320z M114.7,410.5c8.1-16.3,24.8-26.5,42.9-26.5h324.7
	c18.2,0,34.8,10.3,42.9,26.5l27.6,55.2C563.5,487,548,512,524.2,512H115.8c-23.8,0-39.3-25-28.6-46.3l27.6-55.2H114.7z M36.3,138.3
	c7.5-10.9,22.5-13.6,33.4-6.1l104,72c10.9,7.5,13.6,22.5,6.1,33.4s-22.5,13.6-33.4,6.1l-104-72C31.5,164.2,28.8,149.2,36.3,138.3
	L36.3,138.3z M570.4,132.2c10.9-7.5,25.8-4.8,33.4,6.1s4.8,25.8-6.1,33.4l-104,72c-10.9,7.5-25.8,4.8-33.4-6.1s-4.8-25.8,6.1-33.4
	L570.4,132.2L570.4,132.2z"/>
</svg>
