<?xml version="1.0" encoding="utf-8"?>
<!-- Generator: Adobe Illustrator 27.5.0, SVG Export Plug-In . SVG Version: 6.00 Build 0)  -->
<svg version="1.1" id="Layer_1" xmlns="http://www.w3.org/2000/svg" xmlns:xlink="http://www.w3.org/1999/xlink" x="0px" y="0px"
	 viewBox="0 0 448 512" style="enable-background:new 0 0 448 512;" xml:space="preserve">
<style type="text/css">
	.st0{fill:#FF00CF;}
</style>
<path class="st0" d="M352,224c53,0,96-43,96-96s-43-96-96-96s-96,43-96,96c0,4,0.2,8,0.7,11.9l-94.1,47
	C145.4,170.2,121.9,160,96,160c-53,0-96,43-96,96s43,96,96,96c25.9,0,49.4-10.2,66.6-26.9l94.1,47c-0.5,3.9-0.7,7.8-0.7,11.9
	c0,53,43,96,96,96s96-43,96-96s-43-96-96-96c-25.9,0-49.4,10.2-66.6,26.9l-94.1-47c0.5-3.9,0.7-7.8,0.7-11.9s-0.2-8-0.7-11.9
	l94.1-47C302.6,213.8,326.1,224,352,224z"/>
</svg>
