<?xml version="1.0" encoding="utf-8"?>
<!-- Generator: Adobe Illustrator 27.5.0, SVG Export Plug-In . SVG Version: 6.00 Build 0)  -->
<svg version="1.1" id="Layer_1" xmlns="http://www.w3.org/2000/svg" xmlns:xlink="http://www.w3.org/1999/xlink" x="0px" y="0px"
	 viewBox="0 0 512 512" style="enable-background:new 0 0 512 512;" xml:space="preserve">
<style type="text/css">
	.st0{fill:#FF00CF;}
</style>
<path class="st0" d="M0.3,89.5C0.1,91.6,0,93.8,0,96v128v192c0,35.3,28.7,64,64,64h384c35.3,0,64-28.7,64-64V224V96
	c0-35.3-28.7-64-64-64H64c-2.2,0-4.4,0.1-6.5,0.3c-9.2,0.9-17.8,3.8-25.5,8.2c-10.2,6-18.6,14.6-24.3,25C3.8,72.8,1.2,80.9,0.3,89.5
	z M48,224h416v192c0,8.8-7.2,16-16,16H64c-8.8,0-16-7.2-16-16V224z"/>
</svg>
